<svg width="96" height="96" viewBox="0 0 96 96" fill="none" xmlns="http://www.w3.org/2000/svg">
<path d="M64 16H72C74.1217 16 76.1566 16.8429 77.6569 18.3431C79.1571 19.8434 80 21.8783 80 24V80C80 82.1217 79.1571 84.1566 77.6569 85.6569C76.1566 87.1571 74.1217 88 72 88H24C21.8783 88 19.8434 87.1571 18.3431 85.6569C16.8429 84.1566 16 82.1217 16 80V24C16 21.8783 16.8429 19.8434 18.3431 18.3431C19.8434 16.8429 21.8783 16 24 16H32M48.125 36H41.5625C39.822 36 38.1528 36.6914 36.9221 37.9221C35.6914 39.1528 35 40.822 35 42.5625C35 44.303 35.6914 45.9722 36.9221 47.2029C38.1528 48.4336 39.822 49.125 41.5625 49.125M48.125 36V49.125M48.125 36H54.6875C55.5493 36 56.4027 36.1697 57.1989 36.4995C57.9951 36.8293 58.7185 37.3127 59.3279 37.9221C59.9373 38.5315 60.4207 39.2549 60.7505 40.0511C61.0803 40.8473 61.25 41.7007 61.25 42.5625C61.25 43.4243 61.0803 44.2777 60.7505 45.0739C60.4207 45.8701 59.9373 46.5935 59.3279 47.2029C58.7185 47.8123 57.9951 48.2957 57.1989 48.6255C56.4027 48.9553 55.5493 49.125 54.6875 49.125M48.125 49.125H41.5625M48.125 49.125H54.6875M48.125 49.125V62.25M41.5625 49.125C39.822 49.125 38.1528 49.8164 36.9221 51.0471C35.6914 52.2778 35 53.947 35 55.6875C35 57.428 35.6914 59.0972 36.9221 60.3279C38.1528 61.5586 39.822 62.25 41.5625 62.25M54.6875 49.125C53.8257 49.125 52.9723 49.2947 52.1761 49.6245C51.3799 49.9543 50.6565 50.4377 50.0471 51.0471C49.4377 51.6565 48.9543 52.3799 48.6245 53.1761C48.2947 53.9723 48.125 54.8257 48.125 55.6875C48.125 56.5493 48.2947 57.4027 48.6245 58.1989C48.9543 58.9951 49.4377 59.7185 50.0471 60.3279C50.6565 60.9373 51.3799 61.4207 52.1761 61.7505C52.9723 62.0803 53.8257 62.25 54.6875 62.25C55.5493 62.25 56.4027 62.0803 57.1989 61.7505C57.9951 61.4207 58.7185 60.9373 59.3279 60.3279C59.9373 59.7185 60.4207 58.9951 60.7505 58.1989C61.0803 57.4027 61.25 56.5493 61.25 55.6875C61.25 54.8257 61.0803 53.9723 60.7505 53.1761C60.4207 52.3799 59.9373 51.6565 59.3279 51.0471C58.7185 50.4377 57.9951 49.9543 57.1989 49.6245C56.4027 49.2947 55.5493 49.125 54.6875 49.125ZM41.5625 62.25C39.822 62.25 38.1528 62.9414 36.9221 64.1721C35.6914 65.4028 35 67.072 35 68.8125C35 70.553 35.6914 72.2222 36.9221 73.4529C38.1528 74.6836 39.822 75.375 41.5625 75.375C43.303 75.375 44.9722 74.6836 46.2029 73.4529C47.4336 72.2222 48.125 70.553 48.125 68.8125V62.25M41.5625 62.25H48.125M36 8H60C62.2091 8 64 9.79086 64 12V20C64 22.2091 62.2091 24 60 24H36C33.7909 24 32 22.2091 32 20V12C32 9.79086 33.7909 8 36 8Z" stroke="#EA580C" stroke-width="5" stroke-linecap="round" stroke-linejoin="round"/>
</svg>
